PathFileType	3	(X/Y/Z)	C:\Users\koon_\Desktop\
DataRate	CameraRate	NumFrames	NumMarkers	Units	OrigDataRate	OrigDataStartFrame	OrigNumFrames
100.0	100.0	8	27	mm	100.0	3151	5041	
Frame#	Time	get:LFHD			get:RFHD			get:LBHD			get:RBHD			get:C7			get:T10			get:CLAV			get:STRN			get:RBAK			get:LSHO			get:LUPA			get:LELB			get:LFRA			get:LWRA			get:LWRB			get:LFIN			get:RSHO			get:RUPA			get:RELB			get:RFRA			get:RWRA			get:RWRB			get:RFIN			get:LASI			get:RASI			get:LPSI			get:RPSI			
		X1	Y1	Z1	X2	Y2	Z2	X3	Y3	Z3	X4	Y4	Z4	X5	Y5	Z5	X6	Y6	Z6	X7	Y7	Z7	X8	Y8	Z8	X9	Y9	Z9	X10	Y10	Z10	X11	Y11	Z11	X12	Y12	Z12	X13	Y13	Z13	X14	Y14	Z14	X15	Y15	Z15	X16	Y16	Z16	X17	Y17	Z17	X18	Y18	Z18	X19	Y19	Z19	X20	Y20	Z20	X21	Y21	Z21	X22	Y22	Z22	X23	Y23	Z23	X24	Y24	Z24	X25	Y25	Z25	X26	Y26	Z26	X27	Y27	Z27	
3151	31.5	81.067169	1541.2119	-32.345676	-65.470543	1547.7853	-46.223034	89.51519	1515.7257	-167.40698	-60.119419	1516.9889	-175.8911	14.664313	1337.9441	-202.54982	10.909307	1140.3152	-258.02875	3.4726365	1231.1423	-20.840805	-1.4422733	1073.4924	1.3224449	-78.021126	1271.6848	-236.54086	156.57535	1341.948	-117.70464	298.53552	1224.6057	-25.72612	409.00473	1167.0457	-45.739418	426.81848	1149.4822	50.434689	532.85553	1037.5488	132.06448	577.56287	1084.1808	92.835434	615.31891	1064.2968	153.06401	-117.23464	1344.1271	-112.57147	-233.50937	1279.1635	-97.748489	-411.03983	1163.4059	-150.19402	-501.83194	1117.2206	-24.138592	-569.76996	1075.9165	14.584066	-600.2431	1098.1788	-50.777267	-635.47028	1108.4203	26.011181	136.66161	892.51129	-101.41276	-157.50446	901.77789	-79.069489	31.696499	934.9176	-276.52499	-56.104935	931.80402	-273.2037
3152	31.51	83.170044	1541.2726	-33.082069	-63.492447	1547.7266	-45.602505	90.463745	1515.5211	-168.21217	-59.220707	1516.6918	-175.2554	12.751536	1338.1851	-202.6508	7.7197423	1140.1627	-258.12576	6.255115	1231.0416	-21.458492	1.4112513	1073.1573	0.92146939	-81.131065	1272.2682	-234.30791	157.02118	1341.4327	-121.78548	303.67212	1222.472	-37.519245	413.1806	1165.6715	-63.719406	435.16116	1146.2736	30.989429	544.87579	1033.577	105.31741	587.60223	1080.6753	64.59893	628.45343	1059.293	122.39051	-116.29902	1344.4164	-108.88923	-231.98007	1280.3323	-89.867348	-412.40353	1166.1848	-134.22617	-497.10156	1119.9824	-3.5850844	-563.17432	1078.8921	38.122318	-596.88696	1101.9042	-25.06588	-627.65967	1112.1235	53.208588	136.66025	892.61035	-102.58126	-157.28104	901.65582	-77.659966	30.173063	935.04175	-276.85126	-57.599792	931.89484	-272.80139
3153	31.52	85.28978	1541.2909	-33.902702	-61.422394	1547.6499	-45.152332	91.422493	1515.3123	-168.95033	-58.32465	1516.389	-174.72833	10.883411	1338.3921	-202.56874	4.3146515	1139.9534	-258.10785	9.1257954	1230.8933	-20.260798	4.2399001	1072.9211	0.98520344	-84.202866	1272.7705	-231.81158	157.40456	1340.8613	-125.94298	308.07162	1219.928	-49.266464	416.18063	1163.8346	-82.038521	442.53137	1142.9835	10.97948	555.57867	1028.6748	77.127426	596.08594	1077.0415	35.895416	639.89069	1054.2036	90.992149	-115.23886	1344.5618	-105.0582	-230.17082	1281.4807	-82.070724	-413.64697	1169.2185	-118.67348	-491.62668	1122.626	16.660872	-555.5567	1081.7008	61.481419	-592.85333	1105.7948	-0.32895094	-619.44611	1115.4641	79.406448	136.7001	892.7215	-103.66681	-157.0058	901.48389	-76.236031	28.631611	935.13232	-277.08902	-59.090542	932.005	-272.39041
3154	31.53	87.344612	1541.3171	-34.689053	-59.335426	1547.561	-44.674683	92.353271	1515.1298	-169.8143	-57.397255	1516.1033	-174.24834	8.9907846	1338.6145	-202.54077	0.92701674	1139.7874	-258.1062	12.007365	1230.5079	-20.822792	7.0519147	1072.7432	0.89629591	-87.255234	1273.4497	-229.37093	157.69627	1340.2354	-130.07446	312.0152	1217.3341	-61.61631	418.37045	1161.7571	-100.61958	448.82288	1139.6161	-9.4095583	564.53046	1024.1635	48.814823	602.97803	1073.3031	6.6974931	649.5047	1049.186	59.120522	-114.13139	1344.864	-101.40588	-228.08432	1282.5717	-74.244812	-413.78442	1171.9098	-102.04047	-485.30719	1124.7697	35.700512	-546.927	1084.2582	84.310463	-586.71887	1109.101	25.045465	-608.86725	1118.4429	106.30195	136.69266	892.80469	-104.83469	-156.73726	901.31848	-74.744026	27.122406	935.14868	-277.26102	-60.499439	932.13818	-272.04221
3155	31.54	89.434044	1541.3547	-35.552116	-57.182934	1547.4801	-44.159832	93.254356	1514.9323	-170.66345	-56.500496	1515.7753	-173.75906	7.1324272	1338.8073	-202.41463	-2.4247463	1139.5942	-257.91769	14.926982	1230.2828	-20.91852	9.9027901	1072.5989	0.92571682	-90.149887	1274.0693	-226.59648	157.92799	1339.5748	-134.25282	315.40521	1214.5959	-74.372963	419.6225	1159.5846	-119.53501	454.12985	1136.2267	-30.203325	571.71808	1019.9147	20.318741	608.31421	1069.4198	-22.766256	657.38483	1044.1912	26.593529	-112.86512	1345.2335	-98.017006	-225.76431	1283.6715	-66.417336	-413.13373	1174.4835	-85.80542	-477.97952	1126.9147	55.164837	-537.26703	1086.6221	106.7003	-579.8208	1112.2729	50.083565	-597.49469	1121.2408	132.38689	136.71402	892.89172	-105.88721	-156.40358	901.17596	-73.275856	25.628754	935.18365	-277.37943	-61.881191	932.25336	-271.63113
3156	31.55	91.537903	1541.3422	-36.44775	-55.031612	1547.382	-43.663734	94.161453	1514.7073	-171.47823	-55.593475	1515.5151	-173.43996	5.2772326	1338.9608	-202.0683	-5.760498	1139.3981	-257.68347	17.792494	1230.0604	-21.11425	12.776047	1072.4565	1.0762591	-92.981407	1274.7786	-223.86897	158.13712	1338.8379	-138.52676	318.28729	1211.7531	-87.46048	419.87653	1157.4607	-138.78206	458.35196	1132.8756	-51.425713	577.37939	1014.9678	-8.4112082	612.01007	1065.4132	-52.519321	663.39673	1039.2897	-5.8615313	-111.52075	1345.5898	-94.522118	-222.99971	1284.6726	-58.645645	-411.64337	1176.7197	-68.862572	-469.61633	1128.5785	73.836487	-526.69257	1088.7836	128.73303	-571.90149	1115.2523	75.166306	-584.97754	1123.7581	157.76239	136.76364	892.97034	-107.00982	-156.19966	901.01678	-71.939407	24.202841	935.29358	-277.60159	-63.326389	932.41132	-271.24814
3157	31.56	93.568535	1541.3638	-37.350418	-53.016365	1547.2563	-43.270432	95.018845	1514.452	-172.43767	-54.709759	1515.2218	-172.99524	3.3949857	1339.2136	-201.80864	-9.1583834	1139.1488	-257.33911	20.701429	1229.8635	-21.427055	15.565971	1072.0842	1.2360719	-95.668823	1275.5707	-221.23219	158.37328	1337.9974	-142.80621	320.49438	1208.9821	-100.84779	419.27496	1155.1538	-158.00629	461.77902	1129.5111	-72.94899	581.38416	1010.5856	-37.225353	614.10571	1061.3425	-82.543213	667.53955	1034.3953	-38.600899	-110.01616	1345.9299	-90.794128	-219.97145	1285.5449	-50.666344	-409.64682	1179.1757	-52.423599	-460.60211	1130.3029	92.454575	-515.10364	1090.6956	150.11916	-562.80048	1118.147	98.896873	-571.32166	1126.0001	182.57597	136.89284	893.05853	-108.27269	-155.83302	900.88391	-70.394585	22.71698	935.28723	-277.65689	-64.675354	932.53442	-270.7486
3158	31.57	95.638817	1541.351	-38.310356	-50.999073	1547.1743	-42.888588	95.89547	1514.2275	-173.33894	-53.873096	1514.8612	-172.39954	1.5624623	1339.3766	-201.5062	-12.428598	1138.8666	-256.83517	23.706396	1229.6388	-21.673611	18.424519	1071.9208	1.1067667	-98.340347	1276.696	-219.09659	158.53308	1337.2029	-147.20175	322.0701	1206.3282	-114.57102	417.65494	1152.6414	-177.17973	463.93936	1126.0472	-94.608803	583.69867	1006.3025	-66.030304	614.5705	1057.3008	-112.50373	670.06311	1029.5741	-71.424339	-108.42019	1346.2627	-87.300247	-216.75566	1286.5769	-43.407295	-406.9079	1181.4794	-35.641029	-450.76382	1131.9167	110.92241	-502.5993	1092.4218	171.07674	-552.5188	1120.5999	122.80815	-556.59039	1127.9923	206.68217	136.9306	893.2478	-108.83943	-155.54541	900.73407	-69.026558	21.264585	935.41937	-277.84689	-65.927933	932.68927	-270.25778
